<svg xmlns="http://www.w3.org/2000/svg" viewBox="0 0 980 320" preserveAspectRatio="xMidYMid meet">
  <defs>
    <linearGradient id="goldGrad" x1="0%" y1="0%" x2="100%" y2="100%">
      <stop offset="0%" style="stop-color:#C9A961;stop-opacity:1" />
      <stop offset="50%" style="stop-color:#B8941E;stop-opacity:1" />
      <stop offset="100%" style="stop-color:#C9A961;stop-opacity:1" />
    </linearGradient>
  </defs>
  
  <!-- Escudo dourado -->
  <g id="shield" transform="translate(20, 25)">
    <path d="M 30 20 
             L 230 20
             C 252 20 258 33 258 50
             L 258 160
             C 258 208 230 245 140 285
             C 50 245 22 208 22 160
             L 22 50
             C 22 33 35 20 55 20
             Z" 
          fill="none" 
          stroke="url(#goldGrad)" 
          stroke-width="17" 
          stroke-linecap="round"
          stroke-linejoin="round"/>
    
    <path d="M 52 175 
             L 140 235" 
          fill="none" 
          stroke="url(#goldGrad)" 
          stroke-width="15" 
          stroke-linecap="round"/>
    
    <path d="M 60 88 
             C 82 110 112 148 122 205" 
          fill="none" 
          stroke="url(#goldGrad)" 
          stroke-width="14" 
          stroke-linecap="round"/>
    
    <path d="M 172 88
             C 150 110 135 148 128 205" 
          fill="none" 
          stroke="url(#goldGrad)" 
          stroke-width="13" 
          stroke-linecap="round"/>
  </g>
  
  <!-- ELITE em branco -->
  <text x="295" y="145" 
        font-family="'Arial Black', 'Arial Bold', sans-serif" 
        font-size="108" 
        font-weight="900"
        letter-spacing="12"
        fill="#FFFFFF">ELITE</text>
  
  <!-- Linha horizontal branca -->
  <line x1="720" y1="130" x2="950" y2="130" 
        stroke="#FFFFFF" 
        stroke-width="8" 
        stroke-linecap="round"/>
  
  <!-- BLINDAGENS em dourado -->
  <text x="295" y="240" 
        font-family="'Arial Black', 'Arial Bold', sans-serif" 
        font-size="76" 
        font-weight="900"
        letter-spacing="19"
        fill="url(#goldGrad)">BLINDAGENS</text>
</svg>
